<svg width="24" height="20" viewBox="0 0 24 20" fill="none" xmlns="http://www.w3.org/2000/svg">
<g clip-path="url(#clip0_8626_1613)">
<path d="M2.38977 7.90234H2.8071V8.23568H2.38977V7.90234ZM4.65749 7.90234H5.02757V8.23568H4.65749V7.90234ZM2.38977 10.0173H2.75985V10.3966H2.38977V10.0173ZM4.65749 10.0173H5.07481V10.3966H4.65749V10.0173ZM2.38977 12.2242H2.75985V12.5575H2.38977V12.2242ZM4.65749 12.2242H5.07481V12.5575H4.65749V12.2242ZM2.38977 14.2931H2.75985V14.6725H2.38977V14.2931ZM4.65749 14.2931H5.07481V14.6725H4.65749V14.2931ZM2.38977 16.5H2.75985V16.8334H2.38977V16.5ZM4.65749 16.5H5.07481V16.8334H4.65749V16.5Z" fill="black" stroke="black"/>
<path d="M24 5.28736H17.4331V0H6.56693V5.28736H0V20H24V5.28736ZM6.56693 19.1724H0.803148V6.11495H6.56693L6.56693 19.1724ZM13.7008 19.2184H10.2992V14.3908H13.7008V19.2184ZM9.49606 13.5632V19.2184H7.41732V0.781608H16.5827L16.5354 19.2184H14.5512V13.5632H9.49606V13.5632ZM23.1496 19.1724H17.4331V6.11495H23.1496V19.1724Z" fill="black" stroke="black" stroke-width="0.4"/>
<mask id="path-3-inside-1_8626_1613" fill="white">
<path d="M18.4724 7.40227H19.8425V8.73561H18.4724V7.40227ZM20.6929 7.40227H22.1102V8.73561H20.6929V7.40227ZM18.4252 9.51721H19.8425V10.8965H18.4252V9.51721ZM20.7402 9.51721H22.1102V10.8965H20.7402V9.51721ZM18.4252 11.7241H19.8425V13.0574H18.4252V11.7241ZM20.7402 11.7241H22.1102V13.0574H20.7402V11.7241ZM18.4252 13.7931H19.8425V15.1724H18.4252V13.7931ZM20.7402 13.7931H22.1102V15.1724H20.7402V13.7931ZM18.4252 16H19.8425V17.3333H18.4252V16ZM20.7402 16H22.1102V17.3333H20.7402V16ZM8.50394 6.48273H9.92126V7.81606H8.50394V6.48273ZM13.9843 6.48273H15.4016V7.81606H13.9843V6.48273ZM8.50394 8.59767H9.92126V9.97698H8.50394V8.59767ZM14.0315 8.59767H15.4016V9.97698H14.0315V8.59767ZM8.50394 10.8046H9.92126V12.1379H8.50394V10.8046ZM14.0315 10.8046H15.4016V12.1379H14.0315V10.8046ZM11.2441 6.43675H12.6614V7.81606H11.2441V6.43675ZM8.50394 4.32181H9.92126V5.65514H8.50394V4.32181ZM13.9843 4.32181H15.4016V5.65514H13.9843V4.32181ZM11.2441 4.32181H12.6614V5.65514H11.2441V4.32181ZM8.50394 2.16089H9.92126V3.49422H8.50394V2.16089ZM13.9843 2.16089H15.4016V3.49422H13.9843V2.16089ZM11.2441 2.16089H12.6614V3.49422H11.2441V2.16089ZM11.2441 8.59767H12.6614V9.93101H11.2441V8.59767ZM11.2441 10.7586H12.6614V12.1379H11.2441V10.7586Z"/>
</mask>
<path d="M18.4724 7.40227H19.8425V8.73561H18.4724V7.40227ZM20.6929 7.40227H22.1102V8.73561H20.6929V7.40227ZM18.4252 9.51721H19.8425V10.8965H18.4252V9.51721ZM20.7402 9.51721H22.1102V10.8965H20.7402V9.51721ZM18.4252 11.7241H19.8425V13.0574H18.4252V11.7241ZM20.7402 11.7241H22.1102V13.0574H20.7402V11.7241ZM18.4252 13.7931H19.8425V15.1724H18.4252V13.7931ZM20.7402 13.7931H22.1102V15.1724H20.7402V13.7931ZM18.4252 16H19.8425V17.3333H18.4252V16ZM20.7402 16H22.1102V17.3333H20.7402V16ZM8.50394 6.48273H9.92126V7.81606H8.50394V6.48273ZM13.9843 6.48273H15.4016V7.81606H13.9843V6.48273ZM8.50394 8.59767H9.92126V9.97698H8.50394V8.59767ZM14.0315 8.59767H15.4016V9.97698H14.0315V8.59767ZM8.50394 10.8046H9.92126V12.1379H8.50394V10.8046ZM14.0315 10.8046H15.4016V12.1379H14.0315V10.8046ZM11.2441 6.43675H12.6614V7.81606H11.2441V6.43675ZM8.50394 4.32181H9.92126V5.65514H8.50394V4.32181ZM13.9843 4.32181H15.4016V5.65514H13.9843V4.32181ZM11.2441 4.32181H12.6614V5.65514H11.2441V4.32181ZM8.50394 2.16089H9.92126V3.49422H8.50394V2.16089ZM13.9843 2.16089H15.4016V3.49422H13.9843V2.16089ZM11.2441 2.16089H12.6614V3.49422H11.2441V2.16089ZM11.2441 8.59767H12.6614V9.93101H11.2441V8.59767ZM11.2441 10.7586H12.6614V12.1379H11.2441V10.7586Z" fill="black" stroke="black" stroke-width="2" mask="url(#path-3-inside-1_8626_1613)"/>
</g>
<defs>
<clipPath id="clip0_8626_1613">
<rect width="24" height="20" fill="white"/>
</clipPath>
</defs>
</svg>
