<svg width="19" height="19" viewBox="0 0 19 19" fill="none"
                                                    xmlns="http://www.w3.org/2000/svg">
                                                    <g clip-path="url(#clip0_8626_1655)">
                                                        <path
                                                            d="M8.70834 3.16668H3.16668C2.74675 3.16668 2.34402 3.3335 2.04709 3.63043C1.75016 3.92736 1.58334 4.33009 1.58334 4.75002V15.8333C1.58334 16.2533 1.75016 16.656 2.04709 16.9529C2.34402 17.2499 2.74675 17.4167 3.16668 17.4167H14.25C14.6699 17.4167 15.0727 17.2499 15.3696 16.9529C15.6665 16.656 15.8333 16.2533 15.8333 15.8333V10.2917M14.6458 1.97918C14.9608 1.66424 15.3879 1.4873 15.8333 1.4873C16.2787 1.4873 16.7059 1.66424 17.0208 1.97918C17.3358 2.29413 17.5127 2.72128 17.5127 3.16668C17.5127 3.61208 17.3358 4.03924 17.0208 4.35418L9.50001 11.875L6.33334 12.6667L7.12501 9.50002L14.6458 1.97918Z"
                                                            stroke="#1473E6" stroke-width="2" stroke-linecap="round"
                                                            stroke-linejoin="round" />
                                                    </g>
                                                    <defs>
                                                        <clipPath id="clip0_8626_1655">
                                                            <rect width="19" height="19" fill="white" />
                                                        </clipPath>
                                                    </defs>
                                                </svg>