<svg  viewBox="0 0 566 400" fill="none" xmlns="http://www.w3.org/2000/svg">
                    <path
                        d="M374.869 397.518C381.562 397.518 388.07 397.22 394.394 396.623C437.088 392.685 470.844 375.854 493.292 352.355C505.167 340.107 514.146 325.355 519.572 309.182C524.681 293.871 526.172 277.583 523.926 261.599C508.413 151.418 378.129 204.997 432.747 137.983C487.364 70.9684 380.443 -14.2642 339.415 5.90723C298.388 26.0787 343.633 69.2206 242.247 48.8252C140.861 28.4299 161.841 118.041 161.841 118.041"
                        stroke="#E8F1FD" stroke-width="4.82" stroke-miterlimit="10" />
                    <path
                        d="M101.905 302.426C101.905 302.426 55.4724 269.131 37.5464 305.953C37.5464 305.953 56.3992 239.138 120.702 215.241C120.702 215.241 139.082 205.015 139.89 211.192C140.699 217.368 146.029 220.522 148.362 220.447C150.694 220.372 170.387 221.604 171.071 218.662C171.755 215.72 170.449 206.906 180.215 206.844C189.98 206.782 242.968 219.8 258.12 233.559C258.12 233.559 231.747 265.399 245.848 300.504L233.968 297.625C233.968 297.625 241.295 361.069 231.306 397.972H58.7628C58.7628 397.972 76.0109 400.143 93.7006 387.522L119.389 354.556C119.389 354.556 130.654 337.489 153.668 335.05C153.668 335.05 166.767 333.62 166.642 327.394C166.518 321.167 171.363 331.381 177.838 322.38C178.628 322.38 194.365 323.288 194.365 323.288C194.365 323.288 206.183 324.395 208.404 313.846C210.624 303.297 218.81 229.254 215.868 224.807C212.926 220.36 211.8 220.304 186.969 220.453C162.139 220.602 140.319 215.651 137.16 228.004C134 240.357 130.349 287.163 130.349 287.163C130.349 287.163 116.354 290.826 105.693 305.984C105.73 305.978 101.905 313.367 101.905 302.426Z"
                        fill="#2E2E2E" />
                    <path d="M101.905 279.941V309.087" stroke="black" stroke-width="4.82" stroke-miterlimit="10" />
                    <path
                        d="M233.172 294.515C260.571 309.07 336.293 338.808 338.98 224.428C338.98 224.428 335.721 194.392 344.217 190.473C352.714 186.555 366.416 174.146 348.77 144.103L360.284 132.615C361.839 131.014 362.695 128.86 362.663 126.628C362.631 124.396 361.714 122.269 360.112 120.713C358.511 119.157 356.358 118.301 354.126 118.333C351.894 118.365 349.766 119.283 348.211 120.884L325.327 145.142C325.327 145.142 322.012 138.922 316.134 142.163C310.256 145.403 288.698 159.156 298.488 187.873L273.023 261.021"
                        stroke="black" stroke-width="4.82" stroke-miterlimit="10" />
                    <path d="M325.296 145.127C325.296 145.127 331.398 154.413 318.41 163.905" stroke="black"
                        stroke-width="4.82" stroke-miterlimit="10" />
                    <path
                        d="M352.527 151.318C352.527 151.318 356.328 163.254 340.995 170.954C335.571 173.679 329.619 167.944 332.182 162.439C332.225 162.358 332.262 162.271 332.306 162.184"
                        stroke="black" stroke-width="4.82" stroke-miterlimit="10" />
                    <path
                        d="M357.167 166.058C357.167 166.058 353.815 177.715 344.64 178.275C336.523 178.766 337.885 170.487 337.885 170.487"
                        stroke="black" stroke-width="4.82" stroke-miterlimit="10" />
                    <path
                        d="M200.212 158.758C199.59 158.919 199.198 158.403 198.619 158.502C190.303 156.985 184.121 150.417 183.424 147.257C183.66 148.98 186.82 148.806 186.285 150.566C186.186 150.902 185.987 150.771 185.825 151.094C185.564 151.716 185.57 150.864 185.203 151.424C183.163 148.407 181.981 146.908 181.62 145.248C181.865 147.03 181.721 148.845 181.197 150.566C181.101 150.902 180.975 151.229 180.818 151.542C179.574 154.478 176.98 156.96 172.645 157.576C171.558 157.713 170.46 157.749 169.367 157.681C166.257 157.501 163.57 157.321 161.281 157.221C153.63 156.879 150.887 157.458 151.746 162.396C152.219 164.63 152.889 166.818 153.748 168.933C155.266 172.927 156.323 179.843 154.768 187.376V187.419C152.965 196.189 147.255 202.969 135.02 209.339C132.852 210.458 130.617 211.44 128.327 212.281C107.098 220.155 56.3183 240.103 35.2698 313.25C33.0307 321.044 31.3576 328.134 30.1758 334.609L29.5973 334.273C15.2229 325.659 5.84934 306.333 8.6981 289.707C10.1163 281.453 15.4903 275.694 22.3821 271.358C27.2213 268.36 32.3963 265.903 36.7315 262.202C51.0997 249.93 39.6114 230.847 47.5668 216.174C56.536 199.666 70.5808 189.491 88.9173 188.651C93.5326 188.85 98.7263 189.391 103.764 189.148C111.079 189.41 118.556 188.813 123.911 184.017C128.128 180.285 129.005 174.202 130.604 169.126C132.404 163.403 133.905 157.589 135.101 151.71C136.195 146.136 138.236 140.79 141.134 135.905C144.264 130.611 148.677 126.191 153.966 123.055C158.58 120.45 163.725 118.925 169.012 118.595C173.828 118.879 178.512 120.276 182.696 122.675C184.125 123.52 185.476 124.49 186.733 125.574C195.995 133.473 200.429 146.846 200.212 158.758Z"
                        fill="#93BFF4" />
                    <path
                        d="M340.734 177.578C340.734 177.578 337.767 181.26 339.391 184.756C341.014 188.252 345.045 189.066 348.963 187.536"
                        stroke="black" stroke-width="4.82" stroke-miterlimit="10" />
                    <path d="M348.758 144.102L340.56 152.294" stroke="black" stroke-width="4.82" stroke-miterlimit="10" />
                    <path
                        d="M130.38 286.36L137.054 228.825C137.324 226.497 138.44 224.35 140.19 222.791C141.94 221.232 144.202 220.372 146.546 220.372H207.838C209.179 220.372 210.505 220.653 211.73 221.199C212.955 221.744 214.051 222.542 214.948 223.539C215.845 224.537 216.521 225.712 216.933 226.988C217.345 228.264 217.485 229.613 217.342 230.946L208.41 313.853C208.157 316.196 207.046 318.365 205.292 319.939C203.538 321.515 201.263 322.386 198.906 322.386H176.974"
                        stroke="black" stroke-width="4.82" stroke-miterlimit="10" />
                    <path
                        d="M202.824 235.026C204.205 235.026 205.325 233.907 205.325 232.525C205.325 231.145 204.205 230.025 202.824 230.025C201.443 230.025 200.324 231.145 200.324 232.525C200.324 233.907 201.443 235.026 202.824 235.026Z"
                        fill="black" />
                    <path
                        d="M161.548 299.709C168.017 301.164 169.311 301.189 175.587 302.122C179.543 302.713 188.587 303.205 188.748 297.065C188.898 291.673 182.846 288.507 178.572 286.784C173.641 284.908 168.48 283.701 163.228 283.195C161.063 282.946 158.888 282.776 156.703 282.685C141.557 282.063 124.085 285.726 113.654 297.575C89.4896 324.993 57.3571 342.621 57.3571 342.621"
                        stroke="black" stroke-width="4.82" stroke-miterlimit="10" />
                    <path
                        d="M178.871 302.425C181.981 303.744 187.249 306.555 185.091 311.942C184.108 314.43 182.323 315.313 179.872 315.674C174.579 316.439 168.9 315.313 163.7 314.225C161.778 313.82 158.37 313.08 156.473 312.558"
                        stroke="black" stroke-width="4.82" stroke-miterlimit="10" />
                    <path
                        d="M173.341 315.798C173.341 315.798 178.995 315.73 177.633 320.986C175.388 329.694 157.941 325.75 149.78 323.922"
                        stroke="black" stroke-width="4.82" stroke-miterlimit="10" />
                    <path d="M173.69 207.315C200.274 208.478 240.785 216.272 277.52 248.05" stroke="black"
                        stroke-width="4.82" stroke-miterlimit="10" />
                    <path d="M374.869 397.523L58.7628 397.996" stroke="black" stroke-width="4.82" stroke-miterlimit="10" />
                    <path d="M233.172 282.621C233.172 282.621 239.392 340.51 233.172 397.523" stroke="black"
                        stroke-width="4.82" stroke-miterlimit="10" />
                    <path opacity="0.54"
                        d="M507.673 256.18L562.34 116.099C563.018 113.389 563.069 110.56 562.489 107.827C561.91 105.094 560.716 102.529 558.997 100.326C557.278 98.1243 555.08 96.3423 552.569 95.1169C550.058 93.891 547.301 93.254 544.507 93.2534H327.336C322.46 93.2528 317.726 94.8936 313.896 97.9122C310.066 100.93 307.364 105.15 306.225 109.892L246.364 249.941C245.714 252.644 245.686 255.459 246.281 258.175C246.876 260.891 248.08 263.436 249.8 265.62C251.521 267.803 253.714 269.568 256.215 270.782C258.716 271.995 261.461 272.626 264.24 272.626H486.605C491.448 272.626 496.152 271.008 499.969 268.028C503.786 265.048 506.498 260.878 507.673 256.18Z"
                        fill="white" />
                    <path
                        d="M507.673 256.18L562.34 116.099C563.018 113.389 563.069 110.56 562.489 107.827C561.91 105.094 560.716 102.529 558.997 100.326C557.278 98.1243 555.08 96.3423 552.569 95.1169C550.058 93.891 547.301 93.254 544.507 93.2534H327.336C322.46 93.2528 317.726 94.8936 313.896 97.9122C310.066 100.93 307.364 105.15 306.225 109.892L246.364 249.941C245.714 252.644 245.686 255.459 246.281 258.175C246.876 260.891 248.08 263.436 249.8 265.62C251.521 267.803 253.714 269.568 256.215 270.782C258.716 271.995 261.461 272.626 264.24 272.626H486.605C491.448 272.626 496.152 271.008 499.969 268.028C503.786 265.048 506.498 260.878 507.673 256.18Z"
                        fill="#93BFF4" />
                    <path
                        d="M507.673 256.18L562.34 116.099C563.018 113.389 563.069 110.56 562.489 107.827C561.91 105.094 560.716 102.529 558.997 100.326C557.278 98.1243 555.08 96.3423 552.569 95.1169C550.058 93.891 547.301 93.254 544.507 93.2534H327.336C322.46 93.2528 317.726 94.8936 313.896 97.9122C310.066 100.93 307.364 105.15 306.225 109.892L246.364 249.941C245.714 252.644 245.686 255.459 246.281 258.175C246.876 260.891 248.08 263.436 249.8 265.62C251.521 267.803 253.714 269.568 256.215 270.782C258.716 271.995 261.461 272.626 264.24 272.626H486.605C491.448 272.626 496.152 271.008 499.969 268.028C503.786 265.048 506.498 260.878 507.673 256.18Z"
                        stroke="black" stroke-width="4.82" stroke-linecap="square" stroke-linejoin="round" />
                    <path
                        d="M499.674 250.509L550.112 121.276C550.736 118.776 550.783 116.167 550.248 113.646C549.714 111.125 548.613 108.76 547.028 106.728C545.442 104.698 543.415 103.054 541.1 101.923C538.785 100.792 536.242 100.204 533.666 100.202H333.301C328.802 100.201 324.435 101.715 320.901 104.5C317.368 107.285 314.876 111.178 313.826 115.553L258.599 244.755C258 247.249 257.974 249.846 258.524 252.351C259.073 254.856 260.183 257.204 261.771 259.218C263.359 261.232 265.383 262.86 267.691 263.979C269.998 265.098 272.53 265.679 275.094 265.679H480.242C484.708 265.677 489.046 264.183 492.567 261.435C496.087 258.686 498.588 254.841 499.674 250.509Z"
                        fill="#93BFF4" />
                    <path
                        d="M347.756 123.962C350.412 119.975 354.76 118.202 357.466 119.999C360.172 121.797 360.209 126.493 357.553 130.48C357.141 131.093 356.675 131.667 356.16 132.197L375.846 173.759C378.956 171.663 382.439 171.146 384.915 172.795C386.513 173.858 387.403 175.668 387.683 177.771L401.13 173.23L412.892 169.299C414.136 168.87 415.449 168.459 416.73 168.055C417.213 166.611 417.884 165.237 418.727 163.969C422.459 158.371 428.56 155.883 432.355 158.371C436.149 160.859 436.199 167.371 432.572 172.938L454.964 203.559C459.847 199.553 465.601 198.315 469.588 200.965C475.011 204.573 475.092 213.99 469.768 221.995C469.557 222.312 469.314 222.573 469.09 222.878L484.018 243.274C484.062 243.336 484.118 243.41 484.155 243.473C484.532 244.042 484.794 244.68 484.924 245.35C485.056 246.02 485.052 246.71 484.917 247.379C484.781 248.049 484.515 248.685 484.133 249.252C483.752 249.818 483.262 250.304 482.693 250.682C482.124 251.059 481.486 251.32 480.815 251.451C480.145 251.582 479.455 251.579 478.786 251.444C478.116 251.308 477.48 251.042 476.914 250.66C476.347 250.279 475.862 249.789 475.484 249.22L462.229 229.223C458.037 231.655 453.584 232.121 450.318 229.944C445.131 226.498 444.882 217.765 449.503 210.04L428.038 177.653C424.872 179.805 421.376 180.352 418.87 178.691C417.47 177.704 416.515 176.204 416.214 174.518C415.679 174.661 415.15 174.816 414.615 174.966L402.654 178.231L387.347 182.355C386.878 184.19 386.104 185.933 385.058 187.511C381.326 193.109 375.23 195.597 371.43 193.078C367.629 190.559 367.573 183.96 371.299 178.355C371.855 177.542 372.479 176.779 373.165 176.073L354.424 133.696C352.166 135.232 349.672 135.63 347.887 134.442C345.144 132.651 345.101 127.955 347.756 123.962Z"
                        fill="white" />
                    <path
                        d="M490.319 126.256H519.36C520.689 126.256 521.989 125.869 523.101 125.142C524.213 124.415 525.09 123.38 525.624 122.163C525.794 121.79 525.885 121.386 525.891 120.975C525.885 120.182 525.565 119.424 525.003 118.865C524.441 118.306 523.68 117.992 522.887 117.99H491.992C493.466 120.447 492.732 123.843 490.319 126.256Z"
                        fill="#D7E8F0" />
                    <path
                        d="M471.541 123.277C471.543 124.068 471.858 124.826 472.418 125.384C472.977 125.943 473.736 126.256 474.526 126.256H490.319C492.732 123.843 493.466 120.447 492.017 117.99H478.072C476.744 117.989 475.446 118.375 474.333 119.099C473.221 119.823 472.344 120.856 471.808 122.07C471.639 122.451 471.548 122.861 471.541 123.277Z"
                        fill="#93BFF4" />
                    <path
                        d="M478.806 126.256C478.888 126.416 478.984 126.568 479.092 126.71C481.163 129.54 485.654 129.82 489.149 127.258C489.563 126.953 489.954 126.618 490.319 126.256C492.732 123.843 493.466 120.447 492.017 117.99C491.935 117.832 491.839 117.682 491.731 117.542C489.678 114.693 485.187 114.432 481.692 116.976C481.272 117.286 480.876 117.625 480.504 117.99C478.109 120.409 477.375 123.787 478.806 126.256Z"
                        fill="white" />
                    <path
                        d="M464.238 141.503C464.245 142.296 464.564 143.053 465.127 143.611C465.69 144.169 466.45 144.483 467.243 144.483H497.721C496.247 141.995 496.98 138.636 499.4 136.222H470.788C469.459 136.222 468.159 136.61 467.047 137.336C465.935 138.064 465.058 139.099 464.525 140.315C464.35 140.688 464.253 141.092 464.238 141.503Z"
                        fill="#93BFF4" />
                    <path
                        d="M497.714 144.483H512.02C513.347 144.484 514.645 144.099 515.757 143.376C516.87 142.653 517.747 141.621 518.284 140.408C518.456 140.029 518.547 139.618 518.551 139.202C518.552 138.81 518.476 138.422 518.326 138.06C518.177 137.698 517.957 137.37 517.681 137.093C517.404 136.816 517.075 136.597 516.713 136.448C516.351 136.298 515.963 136.221 515.572 136.222H499.394C496.968 138.636 496.24 142.013 497.714 144.483Z"
                        fill="#D7E8F0" />
                    <path
                        d="M497.714 144.482C497.779 144.645 497.867 144.798 497.976 144.936C500.035 147.785 504.525 148.046 508.015 145.502C508.438 145.195 508.835 144.854 509.203 144.482C511.597 142.069 512.313 138.691 510.901 136.222C510.821 136.062 510.727 135.91 510.621 135.768C508.543 132.938 504.053 132.658 500.563 135.22C500.147 135.522 499.756 135.857 499.394 136.222C496.968 138.635 496.24 142.013 497.714 144.482Z"
                        fill="white" />
                    <path
                        d="M487.563 162.583H505.807C507.134 162.583 508.433 162.198 509.545 161.473C510.657 160.749 511.535 159.717 512.07 158.502C512.242 158.129 512.333 157.724 512.338 157.314C512.335 156.519 512.017 155.758 511.454 155.196C510.891 154.634 510.128 154.318 509.333 154.316H489.261C490.692 156.786 489.958 160.163 487.563 162.583Z"
                        fill="#93BFF4" />
                    <path
                        d="M457.994 159.616C457.997 160.405 458.313 161.16 458.872 161.716C459.432 162.273 460.19 162.584 460.979 162.583H487.563C489.958 160.163 490.673 156.786 489.261 154.316H464.525C463.196 154.316 461.896 154.704 460.784 155.43C459.671 156.158 458.795 157.192 458.261 158.409C458.091 158.789 457.999 159.199 457.994 159.616Z"
                        fill="#D7E8F0" />
                    <path
                        d="M476.05 162.582C476.132 162.739 476.228 162.889 476.336 163.029C478.389 165.878 482.88 166.139 486.375 163.595C486.795 163.286 487.191 162.947 487.563 162.582C489.958 160.162 490.673 156.785 489.261 154.315C489.179 154.155 489.084 154.004 488.975 153.861C486.904 151.031 482.413 150.788 478.918 153.314C478.504 153.619 478.113 153.953 477.748 154.315C475.335 156.729 474.576 160.125 476.05 162.582Z"
                        fill="white" />
                    <path
                        d="M369.62 247.95H387.863C389.19 247.951 390.489 247.565 391.601 246.841C392.713 246.116 393.59 245.084 394.127 243.869C394.335 243.415 394.424 242.916 394.387 242.418C394.35 241.92 394.187 241.439 393.914 241.021C393.641 240.603 393.266 240.261 392.824 240.027C392.382 239.793 391.889 239.675 391.39 239.683H371.324C372.748 242.153 372.014 245.53 369.62 247.95Z"
                        fill="#93BFF4" />
                    <path
                        d="M297.194 244.985C297.195 245.375 297.272 245.762 297.423 246.122C297.573 246.483 297.792 246.81 298.069 247.086C298.346 247.361 298.674 247.58 299.035 247.728C299.396 247.877 299.783 247.953 300.173 247.952H369.62C372.014 245.533 372.73 242.155 371.318 239.686H303.725C302.396 239.686 301.096 240.073 299.984 240.8C298.872 241.527 297.995 242.561 297.461 243.779C297.29 244.158 297.2 244.569 297.194 244.985Z"
                        fill="#D7E8F0" />
                    <path
                        d="M358.107 247.951C358.189 248.108 358.284 248.258 358.393 248.399C360.445 251.254 364.936 251.509 368.432 248.965C368.851 248.655 369.248 248.316 369.62 247.951C372.014 245.531 372.73 242.154 371.318 239.685C371.236 239.525 371.141 239.373 371.032 239.231C368.954 236.401 364.463 236.158 360.974 238.683C360.56 238.988 360.17 239.323 359.805 239.685C357.391 242.098 356.657 245.494 358.107 247.951Z"
                        fill="white" />
                    <path
                        d="M31.2143 337.544C28.898 336.63 26.658 335.534 24.5153 334.266C10.1285 325.651 0.754947 306.332 3.60993 289.7C5.03431 281.446 10.4084 275.692 17.325 271.351C22.158 268.353 27.3579 265.902 31.6746 262.201C46.0429 249.929 34.5483 230.84 42.5037 216.173C52.1758 198.384 67.7258 187.953 88.2145 188.631C98.0483 188.954 110.818 191.212 118.848 184.016C123.065 180.284 123.948 174.2 125.547 169.125C127.349 163.401 128.852 157.588 130.05 151.709C131.127 146.135 133.155 140.789 136.046 135.904C139.175 130.605 143.588 126.179 148.878 123.035C158.83 117.294 172.707 116.765 182.709 122.668C184.133 123.514 185.481 124.482 186.739 125.56C195.995 133.497 200.423 146.864 200.212 158.781"
                        stroke="black" stroke-width="4.82" stroke-miterlimit="10" />
                    <path
                        d="M181.415 144.194C181.931 147.702 184.065 150.936 187.853 151.907C192.132 152.995 194.402 157.163 195.609 161.349C197.324 167.49 196.885 174.033 194.365 179.891C192.026 185.401 187.859 191.709 180.812 192.698C167.918 194.564 161.499 189.102 161.499 189.102"
                        stroke="black" stroke-width="4.82" stroke-miterlimit="10" />
                    <path
                        d="M170.673 162.936C171.896 162.936 172.887 161.945 172.887 160.722C172.887 159.499 171.896 158.507 170.673 158.507C169.45 158.507 168.459 159.499 168.459 160.722C168.459 161.945 169.45 162.936 170.673 162.936Z"
                        fill="black" />
                    <path
                        d="M190.148 161.468C191.371 161.468 192.362 160.477 192.362 159.254C192.362 158.031 191.371 157.04 190.148 157.04C188.925 157.04 187.934 158.031 187.934 159.254C187.934 160.477 188.925 161.468 190.148 161.468Z"
                        fill="black" />
                    <path
                        d="M165.535 326.39C168.757 328.368 166.157 331.627 163.819 332.728C159.8 334.594 154.607 334.924 150.228 335.447C116.932 339.365 105.817 385.07 84.9179 393.566C64.0187 402.063 7.93283 408.27 35.2885 313.241C56.3494 240.106 107.13 220.159 128.358 212.284C130.644 211.445 132.874 210.464 135.039 209.348C147.273 202.992 153.002 196.187 154.8 187.411C154.8 187.411 154.8 187.411 154.8 187.373C156.355 179.841 155.31 172.924 153.786 168.925C152.912 166.812 152.233 164.624 151.758 162.387C150.626 156.024 155.54 156.92 169.336 157.679C175.668 158.052 179.25 155.191 180.793 151.546C180.944 151.23 181.067 150.901 181.16 150.563C181.809 148.499 181.886 146.298 181.384 144.194"
                        stroke="black" stroke-width="4.82" stroke-miterlimit="10" />
                    <path
                        d="M180.215 161.258C180.215 161.258 182.541 169.761 182.304 171.017C182.068 172.274 179.089 171.303 179.089 171.303"
                        stroke="black" stroke-width="4.82" stroke-miterlimit="10" />
                    <path d="M178.61 179.089C174.15 181.49 168.994 179.979 166.978 175.979" stroke="black"
                        stroke-width="4.82" stroke-miterlimit="10" />
                    <path
                        d="M174.229 169.769C178.383 165.848 178.648 159.382 174.821 155.328C170.993 151.274 164.523 151.166 160.369 155.088C156.215 159.009 155.95 165.475 159.777 169.529C163.605 173.583 170.075 173.691 174.229 169.769Z"
                        stroke="black" stroke-width="4.82" stroke-miterlimit="10" />
                    <path
                        d="M200.061 167.413C204.215 163.491 204.48 157.025 200.653 152.971C196.826 148.917 190.356 148.809 186.201 152.731C182.047 156.653 181.782 163.118 185.609 167.173C189.436 171.227 195.907 171.334 200.061 167.413Z"
                        stroke="black" stroke-width="4.82" stroke-miterlimit="10" />
                    <path
                        d="M193.345 152.978C195.093 152.967 196.779 153.625 198.057 154.817C199.335 156.009 200.109 157.646 200.218 159.391C200.329 161.291 199.699 163.159 198.46 164.604C197.221 166.049 195.47 166.956 193.575 167.135C193.357 167.135 193.133 167.135 192.916 167.135C191.178 167.147 189.5 166.498 188.223 165.318C186.947 164.138 186.168 162.517 186.043 160.784C185.923 158.879 186.549 157.002 187.789 155.551C189.029 154.099 190.785 153.188 192.686 153.009C192.903 153.009 193.127 153.009 193.345 153.009V152.978ZM193.345 151.51C193.084 151.51 192.816 151.51 192.549 151.547C190.266 151.764 188.157 152.857 186.664 154.598C185.171 156.337 184.411 158.588 184.544 160.877C184.683 162.999 185.627 164.989 187.182 166.44C188.738 167.89 190.789 168.693 192.916 168.683C193.177 168.683 193.444 168.683 193.712 168.646C195.995 168.433 198.106 167.34 199.598 165.599C201.091 163.858 201.848 161.605 201.711 159.316C201.586 157.184 200.65 155.181 199.094 153.719C197.538 152.256 195.48 151.446 193.345 151.454V151.51Z"
                        fill="white" />
                    <path d="M177.503 161.505L182.926 161.007" stroke="black" stroke-width="4.82" stroke-miterlimit="10" />
                    <path
                        d="M167.519 155.137C169.32 155.119 171.059 155.794 172.377 157.023C173.694 158.251 174.49 159.938 174.598 161.736C174.714 163.694 174.066 165.62 172.79 167.109C171.513 168.598 169.708 169.533 167.756 169.717C167.532 169.717 167.302 169.717 167.078 169.717C165.275 169.733 163.536 169.057 162.218 167.827C160.9 166.598 160.103 164.91 159.993 163.111C159.878 161.154 160.527 159.23 161.803 157.742C163.08 156.255 164.884 155.32 166.835 155.137C167.062 155.114 167.291 155.104 167.519 155.106V155.137ZM167.519 153.607C167.246 153.607 166.972 153.619 166.698 153.644C164.346 153.862 162.172 154.992 160.641 156.791C159.109 158.59 158.341 160.915 158.5 163.273C158.643 165.447 159.61 167.486 161.204 168.972C162.797 170.459 164.898 171.281 167.078 171.272C167.345 171.272 167.619 171.272 167.893 171.234C170.234 171.014 172.398 169.892 173.928 168.106C175.458 166.32 176.233 164.009 176.091 161.662C175.949 159.487 174.984 157.449 173.391 155.962C171.798 154.476 169.698 153.653 167.519 153.663V153.607Z"
                        fill="white" />
                    <path
                        d="M199.079 166.371C202.641 163.008 202.866 157.461 199.581 153.982C196.296 150.502 190.746 150.407 187.183 153.77C183.621 157.132 183.397 162.679 186.681 166.159C189.966 169.639 195.517 169.733 199.079 166.371Z"
                        fill="#93BFF4" />
                    <path
                        d="M175.114 169.093C178.707 165.696 178.933 160.099 175.617 156.59C172.3 153.082 166.699 152.992 163.106 156.388C159.512 159.784 159.287 165.382 162.603 168.891C165.919 172.399 171.52 172.489 175.114 169.093Z"
                        fill="#93BFF4" />
                    <path d="M145.37 220.446C142.633 217.591 140.257 213.392 138.696 207.315" stroke="black"
                        stroke-width="4.82" stroke-miterlimit="10" />
                    <path d="M170.673 220.372L173.69 207.316L176.968 193.247" stroke="black" stroke-width="4.82"
                        stroke-miterlimit="10" />
                    <path
                        d="M183.004 272.357C184.164 266.668 181.027 261.225 175.998 260.2C170.969 259.175 165.953 262.956 164.793 268.644C163.634 274.333 166.771 279.776 171.799 280.8C176.828 281.825 181.845 278.045 183.004 272.357Z"
                        fill="#D7E8F0" />
                    <path
                        d="M375.411 364.912L370.31 393.412C370.167 394.212 369.747 394.936 369.124 395.458C368.501 395.98 367.715 396.266 366.902 396.267H340.224C339.403 396.268 338.608 395.976 337.981 395.445C337.355 394.915 336.937 394.178 336.803 393.368L332.138 364.912H375.411Z"
                        stroke="#E8F1FD" stroke-width="4.82" stroke-miterlimit="10" />
                    <path
                        d="M380.262 361.726C380.191 362.593 379.796 363.401 379.156 363.991C378.517 364.581 377.68 364.909 376.81 364.911H330.782C329.924 364.911 329.096 364.593 328.459 364.019C327.821 363.444 327.419 362.654 327.33 361.801C327.284 361.32 327.339 360.835 327.492 360.376C327.644 359.918 327.891 359.497 328.216 359.14C328.541 358.782 328.937 358.497 329.379 358.302C329.821 358.107 330.299 358.006 330.782 358.006H376.81C377.286 358.007 377.757 358.105 378.193 358.296C378.63 358.487 379.023 358.765 379.347 359.114C379.67 359.463 379.919 359.876 380.076 360.325C380.234 360.774 380.297 361.251 380.262 361.726Z"
                        stroke="#E8F1FD" stroke-width="4.82" stroke-miterlimit="10" />
                    <path
                        d="M355.245 357.959C355.245 356.497 358.977 338.291 355.867 322.15C354.175 313.293 350.443 305.064 342.93 300.554"
                        stroke="#E8F1FD" stroke-width="4.82" stroke-miterlimit="10" />
                    <path d="M355.88 322.175C355.88 322.175 356.732 309.909 367.331 309.063" stroke="#E8F1FD"
                        stroke-width="4.82" stroke-miterlimit="10" />
                    <path d="M357.018 340.891C360.033 338.779 363.665 337.728 367.343 337.905" stroke="#CCDDE2"
                        stroke-width="4.82" stroke-miterlimit="10" />
                    <path d="M357.018 332.176C357.018 332.176 349.318 323.058 337.015 330.273" stroke="#CCDDE2"
                        stroke-width="4.82" stroke-miterlimit="10" />
                    <path
                        d="M351.588 328.506C351.588 328.506 334.247 312.67 330.85 334.104C330.85 334.104 335.733 337.282 342.942 334.104C350.151 330.925 351.588 328.506 351.588 328.506Z"
                        stroke="#E8F1FD" stroke-width="4.82" stroke-miterlimit="10" />
                    <path
                        d="M359.693 312.795C359.693 312.795 359.071 305.667 367.331 303.335C375.591 301.002 380.275 310.761 380.275 310.761C380.275 310.761 373.899 317.808 359.693 312.795Z"
                        stroke="#E8F1FD" stroke-width="4.82" stroke-miterlimit="10" />
                    <path
                        d="M361.608 337.899C361.608 337.899 361.322 330.69 370.938 332.177C380.555 333.663 382.134 341.867 382.134 341.867C382.134 341.867 366.385 347.64 361.608 338.658"
                        stroke="#E8F1FD" stroke-width="4.82" stroke-miterlimit="10" />
                    <path
                        d="M350.021 307.247C350.021 307.757 342.793 306.625 342.333 306.463C338.831 305.418 336.343 302.992 334.707 299.783C334.203 298.788 331.286 293.208 332.113 292.238C332.138 292.238 349.318 286.702 350.021 307.247Z"
                        stroke="#E8F1FD" stroke-width="4.82" stroke-miterlimit="10" />
                    <path
                        d="M519.584 309.179C514.159 325.355 505.18 340.11 493.304 352.359C470.844 375.858 437.088 392.689 394.406 396.626V309.179H519.584Z"
                        stroke="#E8F1FD" stroke-width="4.82" stroke-miterlimit="10" />
                    <path d="M493.304 352.36C470.844 375.859 437.088 392.69 394.406 396.628V352.36H493.304Z"
                        stroke="#E8F1FD" stroke-width="4.82" stroke-miterlimit="10" />
                    <path
                        d="M480.311 331.631C480.311 328.143 477.483 325.315 473.994 325.315C470.506 325.315 467.678 328.143 467.678 331.631C467.678 335.12 470.506 337.948 473.994 337.948C477.483 337.948 480.311 335.12 480.311 331.631Z"
                        stroke="#E8F1FD" stroke-width="4.82" stroke-miterlimit="10" />
                </svg>